<?xml version="1.0" encoding="utf-8"?>
<!-- Generator: Adobe Illustrator 24.1.2, SVG Export Plug-In . SVG Version: 6.00 Build 0)  -->
<svg version="1.1" id="Layer_1" xmlns="http://www.w3.org/2000/svg" xmlns:xlink="http://www.w3.org/1999/xlink" x="0px" y="0px"
	 viewBox="0 0 612 792" style="enable-background:new 0 0 612 792;" xml:space="preserve">
<style type="text/css">
	.st0{display:none;}
	.st1{fill:#777E82;}
	.st2{fill:#2A6994;}
	.st3{fill:#296994;}
	.st4{fill:#296993;}
	.st5{fill:#285984;}
	.st6{fill:#606060;}
	.st7{fill:#0E3C5D;}
	.st8{fill:none;}
</style>
<path class="st0" d="M279.95,339.05"/>
<g>
	<path class="st1" d="M244.76,380.01"/>
	<path class="st1" d="M244.75,374.53"/>
	<path class="st2" d="M230.07,422.12c0.28,0.03,0.55,0.06,0.83,0.1c0.47,0.29,0.89,0.71,1.4,0.86c3.95,1.19,8.03,2.03,11.84,3.56
		c6.25,2.51,12.36,5.38,18.44,8.27c1.6,0.76,2.91,2.16,4.35,3.27c-0.13,0.23-0.25,0.46-0.38,0.69c-0.55,0-1.13,0.11-1.65-0.02
		c-3.93-0.93-7.83-2.04-11.8-2.81c-1.81-0.35-3.74-0.05-5.61-0.05c-0.41-0.07-0.82-0.13-1.24-0.2c-1.33-1.48-5.66-1.87-7.97-0.71
		c-0.42-0.05-0.83-0.09-1.25-0.14c-0.76-0.29-1.52-0.84-2.28-0.84c-7.06,0.03-14.13-0.12-21.16,0.36
		c-4.89,0.33-9.72,1.57-14.59,2.38c-1.79,0.3-3.62,0.43-5.37,0.85c-3.12,0.75-6.2,1.67-9.29,2.53c-2.67,0.74-5.38,1.37-7.99,2.3
		c-3.83,1.37-7.55,3.03-11.35,4.46c-3.81,1.43-7.7,2.64-11.49,4.13c-3.89,1.53-7.68,3.32-11.55,4.91
		c-4.96,2.04-9.94,4.02-14.93,5.95c-2.68,1.04-5.45,1.85-8.12,2.93c-1.13,0.46-2.08,1.37-3.11,2.07c-0.14,0.03-0.28,0.06-0.42,0.08
		c-0.73-0.09-1.52-0.39-2.19-0.24c-1.66,0.38-3.25,1.06-4.91,1.45c-3.84,0.9-7.69,1.74-11.56,2.51c-3.16,0.62-6.34,1.54-9.52,1.57
		c-10.04,0.1-20.08-0.38-29.79-3.22c-4.57-1.34-9.08-3-13.47-4.86c-5.14-2.18-9.95-5-14.16-8.75c-0.21-0.19-0.76,0-1.14,0.02
		c-0.11-0.03-0.18-0.1-0.2-0.21c0.57-1.8-0.67-1.84-1.87-1.91c0,0,0.02,0.02,0.02,0.02c-1.75-1.77-3.5-3.55-5.26-5.32
		c0,0,0.01,0.01,0.01,0.01c-0.21-0.22-0.42-0.44-0.64-0.66c0,0-0.07-0.05-0.07-0.05c-0.26-0.28-0.53-0.56-0.79-0.84
		c0,0-0.04-0.06-0.04-0.06c-0.09-0.55-0.02-1.2-0.31-1.62c-1.49-2.18-3.06-4.29-4.64-6.47c1.88,0.7,3.84,1.3,5.7,2.15
		c3.15,1.44,6.1,3.47,9.37,4.47c5.7,1.75,11.56,3.05,17.41,4.27c3.37,0.7,6.84,1.08,10.28,1.21c4.97,0.19,9.93,0.57,14.92-0.59
		c6.42-1.5,13.03-2.2,19.44-3.71c6.14-1.44,12.19-3.31,18.18-5.3c5.55-1.84,10.96-4.11,16.45-6.13c3.12-1.15,6.26-2.23,9.41-3.29
		c10.51-3.53,21.13-6.59,32.08-8.6c7.32-1.34,14.61-2.06,22.02-2.07c3.71-0.01,7.41-0.76,11.12-0.76c3.96,0.01,7.92,0.47,11.87,0.82
		c5.2,0.47,10.4,1.03,15.6,1.52C229.17,422.46,229.63,422.23,230.07,422.12z"/>
	<path class="st3" d="M53.15,481.94c3.39,1.26,6.72,2.71,10.17,3.73c14.29,4.23,28.73,4.77,43.35,1.7
		c15.03-3.16,28.79-9.54,42.42-16.26c12.27-6.04,24.62-11.86,37.7-15.97c14.72-4.62,29.76-7.53,45.24-7.35
		c10.01,0.11,19.83,1.55,28.94,6.14c0.56,0.28,1.09,0.61,1.63,0.92c-0.04,0.19-0.09,0.38-0.13,0.57c-1.08-0.08-2.16-0.28-3.23-0.23
		c-8.73,0.4-17.26,1.94-25.64,4.4c-18.13,5.32-34.52,14.3-50.7,23.78c-10.86,6.36-21.93,12.34-33.77,16.71
		c-8.3,3.07-16.76,5.41-25.57,6.64c-11,1.53-21.92,1.29-32.7-1.13c-13.14-2.95-24.53-9.28-33.88-19.1c-1.31-1.38-2.6-2.77-3.88-4.16
		C53.05,482.25,53.13,482.06,53.15,481.94z"/>
	<path class="st4" d="M182.18,512.06c-0.01,0.17-0.1,0.25-0.27,0.24c-1.85-0.12-2.71,1.04-3.29,2.55c-0.21,0.17-0.42,0.34-0.63,0.51
		c-0.22,0.17-0.44,0.33-0.65,0.5c0,0,0.06-0.03,0.06-0.03c-0.77,0.55-1.53,1.11-2.3,1.66c0,0-0.03,0.02-0.03,0.02
		c-2.01-0.27-2.85,1.03-3.5,2.59c0,0-0.05,0.03-0.05,0.03c-0.26,0.19-0.51,0.38-0.77,0.57c0,0,0.06-0.06,0.06-0.06
		c-0.17,0.15-0.34,0.3-0.52,0.45c0,0,0.03-0.02,0.03-0.02c-0.73,0.51-1.47,1.02-2.2,1.53c-0.1,0.08-0.2,0.16-0.3,0.24
		c-1.3-0.14-2.15,0.34-2.38,1.7c-0.23,0.17-0.47,0.33-0.7,0.5c-0.64,0.44-1.27,0.87-1.91,1.31c0,0,0.02-0.02,0.02-0.02
		c-2.5-0.12-3.6,1.77-4.87,3.41l-0.1,0.13c0,0-0.17,0-0.17,0c-1.74-0.31-2.87,0.33-3.25,2.11l-0.08,0.11c0,0-0.13-0.03-0.13-0.03
		c-0.66,0.39-1.32,0.78-1.98,1.17c-0.03,0.13-0.11,0.18-0.25,0.14c-0.51,0.28-1.01,0.56-1.52,0.85c0,0-0.15,0.04-0.15,0.04
		c-0.38,0.23-0.77,0.46-1.15,0.69c-0.08,0.15-0.21,0.2-0.37,0.16c-0.91,0.22-1.88,0.32-2.73,0.68c-5.41,2.32-10.75,2.01-15.94-0.54
		c-4.22-2.07-8.4-4.25-12.5-6.57c-3.84-2.17-7.61-4.48-11.26-6.96c-1.21-0.82-2.13-1.92-3.76-1.56c0,0,0,0,0,0
		c-0.1-1.53,1.01-1.45,1.92-1.29c2.86,0.5,5.65,0.32,8.56,0.11c7.16-0.51,14.33-0.49,21.29-2.69c5.44-1.72,11.09-2.81,16.42-4.79
		c5.96-2.21,11.7-5.03,17.47-7.73c3.98-1.86,7.97-3.77,11.75-6c10.18-5.99,20.67-11.3,31.81-15.25c1.23-0.44,2.54-0.65,3.82-0.97
		c0.11,0.19,0.23,0.38,0.34,0.57c-0.73,0.66-1.57,1.23-2.17,1.99c-0.99,1.27-1.83,2.65-2.73,3.99l0.01-0.01
		c-0.27,0.2-0.53,0.41-0.8,0.61c0,0,0.08-0.07,0.08-0.07c-0.2,0.21-0.41,0.42-0.61,0.63c0,0.14-0.07,0.2-0.21,0.18
		c-0.96,0.85-1.92,1.69-2.89,2.54c-0.32,0.3-0.63,0.6-0.95,0.9c-1.27-0.07-2.41,0.03-2.1,1.8c0,0,0.01-0.01,0.01-0.01
		c-2.93,0.72-4.75,2.76-6.17,5.25c0,0-0.01,0.01-0.01,0.01c-0.28,0.22-0.55,0.45-0.83,0.67c-0.13,0.08-0.26,0.16-0.39,0.24
		c-0.32,0.28-0.65,0.56-0.97,0.84c-0.26,0.2-0.51,0.41-0.77,0.61c-0.28-0.17-0.78-0.52-0.82-0.47c-0.97,1.1-1.88,2.23-2.81,3.37
		l-0.02,0.01c-2.18,0.29-3.42,1.73-4.36,3.54c0,0,0.01-0.01,0.01-0.01c-1.26-0.08-2.49-0.13-2.22,1.74c0,0,0,0,0,0
		C183.62,511.01,182.9,511.53,182.18,512.06z"/>
	<path class="st5" d="M230.07,422.12c-0.45,0.11-0.9,0.34-1.34,0.3c-5.2-0.49-10.39-1.05-15.6-1.52c-3.95-0.35-7.92-0.81-11.87-0.82
		c-3.71-0.01-7.41,0.75-11.12,0.76c-7.42,0.02-14.71,0.73-22.02,2.07c-10.94,2.01-21.56,5.06-32.08,8.6
		c-3.15,1.06-6.3,2.14-9.41,3.29c-5.49,2.03-10.9,4.3-16.45,6.13c-5.99,1.99-12.04,3.86-18.18,5.3c-6.42,1.51-13.02,2.22-19.44,3.71
		c-4.99,1.16-9.95,0.79-14.92,0.59c-3.44-0.13-6.92-0.51-10.28-1.21c-5.85-1.22-11.7-2.52-17.41-4.27c-3.27-1-6.22-3.03-9.37-4.47
		c-1.85-0.85-3.82-1.45-5.7-2.15c1.58,2.19,3.16,4.3,4.64,6.47c0.28,0.42,0.22,1.07,0.31,1.62c-3.9-4.13-7.07-8.77-9.89-13.25
		c5.52,3.07,10.97,6.63,16.85,9.22c5.7,2.52,11.72,4.96,17.82,5.82c11.86,1.68,23.84,1.97,35.77-0.37
		c15.05-2.95,29.33-8.3,43.78-13.18c10.64-3.59,21.34-7.05,32.15-10.09c19.23-5.41,38.95-5.99,58.74-4.96
		c4.9,0.25,9.77,1.25,14.64,1.93C229.85,421.67,229.95,421.96,230.07,422.12z"/>
	<path class="st5" d="M211.14,488.11c0.9-1.34,1.74-2.73,2.73-3.99c0.6-0.76,1.44-1.34,2.17-1.99c-0.11-0.19-0.23-0.38-0.34-0.57
		c-1.27,0.32-2.59,0.53-3.82,0.97c-11.15,3.95-21.64,9.26-31.81,15.25c-3.78,2.23-7.77,4.14-11.75,6
		c-5.77,2.7-11.51,5.52-17.47,7.73c-5.33,1.98-10.99,3.07-16.42,4.79c-6.96,2.2-14.13,2.18-21.29,2.69
		c-2.91,0.21-5.7,0.39-8.56-0.11c-0.91-0.16-2.03-0.24-1.92,1.29c-1.67-0.93-3.34-1.85-5.01-2.78c0.07-0.09,0.14-0.19,0.21-0.28
		c4.11,0.35,8.21,0.78,12.32,1.03c8.02,0.48,15.89-0.69,23.67-2.46c19.55-4.44,36.83-14.11,54.3-23.41
		c7.56-4.02,15.53-7.29,23.4-10.7c2.15-0.93,4.59-1.17,6.9-1.72c0.17,0.28,0.35,0.55,0.52,0.83
		C216.36,483.14,213.75,485.62,211.14,488.11z"/>
	<path class="st5" d="M115.83,466.99c1.03-0.7,1.98-1.61,3.11-2.07c2.66-1.09,5.43-1.89,8.12-2.93c5-1.94,9.98-3.92,14.93-5.95
		c3.87-1.59,7.65-3.38,11.55-4.91c3.79-1.49,7.68-2.69,11.49-4.13c3.81-1.43,7.53-3.09,11.35-4.46c2.6-0.93,5.32-1.56,7.99-2.3
		c3.09-0.86,6.17-1.77,9.29-2.53c1.76-0.43,3.58-0.55,5.37-0.85c4.86-0.82,9.69-2.05,14.59-2.38c7.03-0.48,14.1-0.32,21.16-0.36
		c0.76,0,1.52,0.54,2.28,0.84c-6.72,0.15-13.45,0.07-20.14,0.51c-9.78,0.64-19.38,2.5-28.87,4.94
		c-16.53,4.25-32.15,10.95-47.84,17.5c-7.74,3.23-15.65,6.03-23.5,9.02C116.44,467.01,116.12,466.96,115.83,466.99z"/>
	<path class="st5" d="M28.67,455.55c0.39-0.01,0.93-0.2,1.14-0.02c4.21,3.75,9.03,6.56,14.16,8.75c4.39,1.86,8.89,3.52,13.47,4.86
		c9.71,2.84,19.75,3.32,29.79,3.22c3.18-0.03,6.36-0.94,9.52-1.57c3.87-0.77,7.72-1.61,11.56-2.51c1.66-0.39,3.25-1.07,4.91-1.45
		c0.68-0.15,1.46,0.15,2.19,0.24c-3.82,1.14-7.58,2.54-11.46,3.38c-9.36,2.03-18.84,3.28-28.44,2.62
		c-15.77-1.08-30.61-5.07-43.48-14.75C30.87,457.45,29.79,456.48,28.67,455.55z"/>
	<path class="st5" d="M247.5,435.99c1.87,0,3.81-0.3,5.61,0.05c3.96,0.77,7.86,1.88,11.8,2.81c0.52,0.12,1.1,0.02,1.65,0.02
		c0.13-0.23,0.25-0.46,0.38-0.69c-1.44-1.11-2.74-2.5-4.35-3.27c-6.08-2.89-12.19-5.76-18.44-8.27c-3.81-1.53-7.9-2.36-11.84-3.56
		c-0.51-0.15-0.94-0.57-1.4-0.86c2.87,0.57,5.79,0.95,8.6,1.73c8.91,2.48,17.36,6.06,25.02,11.31c2.07,1.42,3.88,3.21,6.32,5.25
		C262.59,438.91,255.05,437.45,247.5,435.99z"/>
	<path class="st5" d="M102.65,520.16c1.63-0.36,2.55,0.74,3.76,1.56c3.65,2.48,7.42,4.79,11.26,6.96c4.09,2.32,8.28,4.49,12.5,6.57
		c5.2,2.55,10.53,2.86,15.94,0.54c0.85-0.36,1.82-0.46,2.73-0.68c-5.8,3.49-11.96,4.54-18.1,1.38c-7.44-3.83-14.63-8.14-21.9-12.3
		C106.71,522.96,104.71,521.5,102.65,520.16z"/>
	<path class="st5" d="M238.3,435.08c2.31-1.16,6.64-0.77,7.97,0.71C243.61,435.56,240.95,435.32,238.3,435.08z"/>
	<path class="st5" d="M197.51,499.94c1.43-2.49,3.24-4.53,6.17-5.25C201.63,496.44,199.57,498.19,197.51,499.94z"/>
	<path class="st5" d="M21.36,448.14c1.75,1.77,3.5,3.55,5.26,5.32C24.87,451.68,23.12,449.91,21.36,448.14z"/>
	<path class="st5" d="M157.99,529.73c1.28-1.63,2.37-3.53,4.87-3.41C161.24,527.46,159.61,528.6,157.99,529.73z"/>
	<path class="st5" d="M186.55,508.75c0.94-1.82,2.18-3.26,4.36-3.54C189.45,506.39,188,507.57,186.55,508.75z"/>
	<path class="st5" d="M190.92,505.19c0.93-1.13,1.84-2.27,2.81-3.37c0.04-0.05,0.54,0.31,0.82,0.47
		C193.34,503.27,192.13,504.23,190.92,505.19z"/>
	<path class="st5" d="M171.58,520.09c0.65-1.56,1.49-2.86,3.5-2.59C173.91,518.36,172.75,519.23,171.58,520.09z"/>
	<path class="st5" d="M154.47,531.97c0.39-1.78,1.51-2.42,3.25-2.11C156.64,530.57,155.56,531.27,154.47,531.97z"/>
	<path class="st5" d="M178.62,514.84c0.58-1.51,1.45-2.67,3.29-2.55C180.82,513.14,179.72,513.99,178.62,514.84z"/>
	<path class="st5" d="M206.73,492c0.96-0.85,1.92-1.69,2.89-2.54C208.65,490.3,207.69,491.15,206.73,492z"/>
	<path class="st5" d="M203.68,494.7c-0.3-1.77,0.83-1.87,2.1-1.8C205.08,493.5,204.38,494.1,203.68,494.7z"/>
	<path class="st5" d="M184.34,510.49c-0.28-1.87,0.96-1.83,2.22-1.74C185.82,509.32,185.08,509.91,184.34,510.49z"/>
	<path class="st5" d="M26.6,453.43c1.2,0.07,2.43,0.11,1.87,1.91C27.84,454.71,27.22,454.07,26.6,453.43z"/>
	<path class="st5" d="M165.45,524.54c0.22-1.36,1.08-1.85,2.38-1.7C167.04,523.4,166.24,523.97,165.45,524.54z"/>
	<path class="st5" d="M175.11,517.48c0.77-0.55,1.53-1.11,2.3-1.66C176.64,516.37,175.87,516.93,175.11,517.48z"/>
	<path class="st5" d="M168.13,522.59c0.73-0.51,1.47-1.02,2.2-1.53C169.6,521.57,168.86,522.08,168.13,522.59z"/>
	<path class="st5" d="M162.84,526.34c0.63-0.44,1.27-0.87,1.91-1.31C164.11,525.47,163.48,525.91,162.84,526.34z"/>
	<path class="st5" d="M182.18,512.06c0.72-0.52,1.44-1.05,2.15-1.57C183.62,511.01,182.9,511.53,182.18,512.06z"/>
	<path class="st5" d="M152.28,533.23c0.66-0.39,1.32-0.78,1.98-1.17C153.6,532.45,152.94,532.84,152.28,533.23z"/>
	<path class="st5" d="M150.51,534.22c0.51-0.28,1.01-0.56,1.52-0.85C151.53,533.66,151.02,533.94,150.51,534.22z"/>
	<path class="st5" d="M149.21,534.95c0.38-0.23,0.77-0.46,1.15-0.69C149.98,534.49,149.59,534.72,149.21,534.95z"/>
	<path class="st5" d="M195.32,501.69c0.32-0.28,0.65-0.56,0.97-0.84C195.97,501.13,195.64,501.41,195.32,501.69z"/>
	<path class="st5" d="M19.88,446.6c0.26,0.28,0.53,0.56,0.79,0.84C20.41,447.16,20.14,446.88,19.88,446.6z"/>
	<path class="st5" d="M209.82,489.27c0.2-0.21,0.41-0.42,0.61-0.63C210.23,488.85,210.02,489.06,209.82,489.27z"/>
	<path class="st5" d="M210.35,488.71c0.27-0.2,0.53-0.41,0.8-0.61C210.89,488.3,210.62,488.51,210.35,488.71z"/>
	<path class="st5" d="M196.68,500.61c0.28-0.22,0.55-0.45,0.83-0.67C197.23,500.17,196.95,500.39,196.68,500.61z"/>
	<path class="st5" d="M170.76,520.69c0.26-0.19,0.51-0.38,0.77-0.57C171.27,520.31,171.02,520.5,170.76,520.69z"/>
	<path class="st5" d="M20.74,447.49c0.21,0.22,0.42,0.44,0.64,0.66C21.16,447.93,20.95,447.71,20.74,447.49z"/>
	<path class="st5" d="M177.34,515.85c0.22-0.17,0.44-0.33,0.65-0.5C177.78,515.52,177.56,515.68,177.34,515.85z"/>
	<path class="st5" d="M170.3,521.08c0.17-0.15,0.34-0.3,0.52-0.45C170.65,520.78,170.47,520.93,170.3,521.08z"/>
</g>
<path class="st0" d="M279.95,339.05"/>
<path d="M408.85,339.05h-43.4V265.1h15.75v61.06h27.64V339.05z"/>
<path d="M490.63,339.05v-44.88c0-4.14,0.21-9.34,0.62-15.61h-0.38c-0.95,4.74-1.72,7.91-2.29,9.5l-18.24,50.99h-12.56l-18.48-50.51
	c-0.45-1.21-1.23-4.54-2.34-9.98h-0.43c0.41,6.21,0.62,12.43,0.62,18.67v41.82h-14.23V265.1h22.92l15.95,44.69
	c1.34,3.69,2.24,7.16,2.72,10.41h0.33c0.99-4.04,2.01-7.54,3.06-10.5l15.99-44.59h22.3v73.95H490.63z"/>
<path d="M591.64,339.05h-17.19l-5.54-16.95h-26.88l-5.44,16.95h-17.09l27.07-73.95h18.52L591.64,339.05z M565.2,309.93l-8.4-25.64
	c-0.54-1.62-0.92-3.77-1.15-6.45h-0.43c-0.19,2.17-0.62,4.25-1.29,6.25l-8.45,25.83H565.2z"/>
<path d="M278.68,390.04c0-10.87,3.5-19.72,10.49-26.53c7-6.82,16.21-10.23,27.65-10.23c7.37,0,13.8,1.04,19.29,3.12v13.95
	c-5.35-3.12-11.88-4.68-19.61-4.68c-6.65,0-12.05,2.17-16.17,6.51c-4.13,4.34-6.19,10.06-6.19,17.16c0,7.22,1.86,12.85,5.59,16.89
	c3.73,4.04,8.81,6.06,15.26,6.06c3.83,0,6.97-0.59,9.4-1.78v-14.17h-13.95v-11.81h28.65v34.31c-6.74,3.89-15.03,5.84-24.86,5.84
	c-10.99,0-19.67-3.09-26.02-9.27C281.86,409.22,278.68,400.77,278.68,390.04"/>
<path d="M409.04,423.46h-16.93l-10.83-17.96c-2.23-3.71-4.05-6.1-5.48-7.17s-2.94-1.6-4.54-1.6h-4.46v26.74h-14.7v-69.02h24.2
	c16.43,0,24.64,6.24,24.64,18.71c0,4.69-1.37,8.72-4.12,12.08c-2.75,3.36-6.53,5.72-11.34,7.08v0.18c3.18,1.07,6.7,4.58,10.56,10.52
	L409.04,423.46z M366.8,365.62v19.87h7.22c3.45,0,6.22-1,8.31-3.01c2.09-2.01,3.14-4.51,3.14-7.51c0-6.24-3.73-9.36-11.18-9.36
	H366.8z"/>
<path d="M470.78,393.78c0,20.59-9.57,30.88-28.7,30.88c-18.48,0-27.72-10.03-27.72-30.08v-40.15h14.75v40.24
	c0,11.5,4.53,17.24,13.59,17.24c8.91,0,13.37-5.54,13.37-16.62v-40.86h14.7V393.78z"/>
<path d="M499.91,399.4v24.06h-14.7v-69.02h23.75c17.17,0,25.75,7.28,25.75,21.83c0,7.07-2.59,12.74-7.78,17
	c-5.18,4.26-11.67,6.31-19.45,6.13H499.91z M499.91,365.85v22.28h6.37c8.64,0,12.97-3.76,12.97-11.27c0-7.34-4.28-11.01-12.83-11.01
	H499.91z"/>
<path d="M559.15,399.4v24.06h-14.7v-69.02h23.75c17.17,0,25.75,7.28,25.75,21.83c0,7.07-2.59,12.74-7.78,17
	c-5.18,4.26-11.67,6.31-19.45,6.13H559.15z M559.15,365.85v22.28h6.37c8.64,0,12.97-3.76,12.97-11.27c0-7.34-4.28-11.01-12.83-11.01
	H559.15z"/>
<g>
	<path class="st6" d="M308.31,484.01h-4.58l-9.73-11.76c-0.33-0.41-0.56-0.74-0.69-0.97h-0.08v12.73h-3.34v-25.88h3.34v12.18h0.08
		c0.19-0.3,0.42-0.62,0.69-0.95l9.39-11.23h4.13l-10.86,12.41L308.31,484.01z"/>
	<path class="st6" d="M332.52,458.13l-9.51,25.88h-3.71l-9.32-25.88h3.71l6.97,20.23c0.24,0.67,0.41,1.44,0.52,2.32h0.08
		c0.09-0.77,0.28-1.55,0.59-2.36l7.1-20.2H332.52z"/>
	<path class="st6" d="M355.8,484.01h-3.69l-2.64-7.08h-10.78l-2.49,7.08h-3.69l9.86-25.88h3.58L355.8,484.01z M348.43,474
		l-3.91-10.76c-0.12-0.34-0.26-0.95-0.4-1.8h-0.08c-0.12,0.78-0.26,1.38-0.42,1.8L339.74,474H348.43z"/>
	<path class="st6" d="M374.6,484.01h-13.65v-25.88h3.34v22.93h10.31V484.01z"/>
	<path class="st6" d="M383.25,458.13v25.88h-3.34v-25.88H383.25z"/>
	<path class="st6" d="M407.01,461.1h-7.47v22.91h-3.36V461.1h-7.43v-2.97h18.26V461.1z"/>
	<path class="st6" d="M426.31,484.01h-13.92v-25.88h13.33v2.97h-9.99v8.29h9.26v2.96h-9.26v8.71h10.58V484.01z"/>
	<path class="st6" d="M448.32,461.1h-7.47v22.91h-3.36V461.1h-7.43v-2.97h18.26V461.1z"/>
</g>
<g>
	<path class="st6" d="M301.84,504.56h-9.99v8.66h9.26v2.94h-9.26v11.31h-3.34v-25.88h13.33V504.56z"/>
	<path class="st6" d="M326.99,527.47h-3.94l-4.29-7.19c-0.86-1.44-1.65-2.41-2.36-2.93c-0.71-0.52-1.56-0.78-2.56-0.78h-2.41v10.89
		h-3.34v-25.88h7.89c2.52,0,4.49,0.61,5.92,1.82c1.43,1.21,2.14,2.91,2.14,5.1c0,3.59-1.92,5.92-5.75,6.99v0.08
		c0.71,0.3,1.33,0.73,1.85,1.29c0.52,0.56,1.19,1.51,2.01,2.86L326.99,527.47z M311.43,504.51v9.14h3.94c1.53,0,2.77-0.44,3.72-1.34
		c0.95-0.89,1.43-2.06,1.43-3.51c0-1.35-0.43-2.4-1.3-3.16c-0.87-0.76-2.14-1.14-3.79-1.14H311.43z"/>
	<path class="st6" d="M352.17,527.47h-3.69l-2.64-7.08h-10.78l-2.49,7.08h-3.69l9.86-25.88h3.58L352.17,527.47z M344.8,517.46
		l-3.91-10.76c-0.12-0.34-0.26-0.95-0.4-1.8h-0.08c-0.12,0.78-0.26,1.38-0.42,1.8l-3.88,10.76H344.8z"/>
	<path class="st6" d="M380.73,527.47v-17.14c0-1.41,0.08-3.11,0.25-5.1h-0.08c-0.29,1.25-0.55,2.12-0.77,2.61l-8.54,19.63h-1.85
		l-8.52-19.48c-0.2-0.45-0.46-1.36-0.77-2.76h-0.1c0.11,1.2,0.17,2.95,0.17,5.25v16.99h-3.19v-25.88h4.53l7.64,17.74
		c0.58,1.36,0.96,2.42,1.15,3.18h0.12c0.58-1.59,0.99-2.67,1.22-3.24l7.77-17.68h4.31v25.88H380.73z"/>
	<path class="st6" d="M405.49,504.56h-9.99v8.66h9.26v2.94h-9.26v11.31h-3.34v-25.88h13.33V504.56z"/>
	<path class="st6" d="M410.07,514.84c0-4.18,1.13-7.5,3.39-9.97c2.26-2.47,5.32-3.71,9.19-3.71c3.6,0,6.49,1.21,8.69,3.63
		c2.19,2.42,3.29,5.57,3.29,9.44c0,4.2-1.13,7.53-3.38,9.99c-2.25,2.46-5.26,3.69-9.02,3.69c-3.68,0-6.62-1.21-8.84-3.63
		C411.18,521.86,410.07,518.72,410.07,514.84z M413.58,514.57c0,3.13,0.8,5.64,2.4,7.53c1.6,1.89,3.68,2.83,6.26,2.83
		c2.76,0,4.93-0.91,6.51-2.71c1.58-1.81,2.36-4.34,2.36-7.59c0-3.34-0.77-5.92-2.32-7.74c-1.54-1.82-3.66-2.72-6.34-2.72
		c-2.64,0-4.78,0.96-6.42,2.87C414.4,508.95,413.58,511.46,413.58,514.57z M416.94,497.46c0-0.52,0.18-0.96,0.54-1.32
		c0.36-0.35,0.81-0.53,1.34-0.53c0.52,0,0.97,0.18,1.35,0.54c0.38,0.36,0.57,0.8,0.57,1.31s-0.18,0.95-0.55,1.32
		c-0.37,0.37-0.81,0.55-1.32,0.55c-0.51,0-0.96-0.18-1.35-0.54C417.13,498.43,416.94,497.99,416.94,497.46z M424.07,497.46
		c0-0.53,0.18-0.98,0.54-1.33c0.36-0.35,0.8-0.53,1.31-0.53c0.53,0,0.99,0.18,1.36,0.53c0.37,0.36,0.56,0.8,0.56,1.32
		c0,0.53-0.19,0.98-0.56,1.34c-0.37,0.36-0.82,0.53-1.33,0.53c-0.51,0-0.96-0.18-1.33-0.54
		C424.26,498.43,424.07,497.99,424.07,497.46z"/>
	<path class="st6" d="M459.93,527.47h-3.94l-4.3-7.19c-0.86-1.44-1.64-2.41-2.36-2.93c-0.71-0.52-1.56-0.78-2.56-0.78h-2.41v10.89
		h-3.34v-25.88h7.89c2.52,0,4.49,0.61,5.92,1.82c1.43,1.21,2.14,2.91,2.14,5.1c0,3.59-1.92,5.92-5.75,6.99v0.08
		c0.71,0.3,1.33,0.73,1.85,1.29c0.52,0.56,1.19,1.51,2.01,2.86L459.93,527.47z M444.37,504.51v9.14h3.94c1.53,0,2.77-0.44,3.72-1.34
		c0.95-0.89,1.43-2.06,1.43-3.51c0-1.35-0.43-2.4-1.3-3.16c-0.87-0.76-2.13-1.14-3.79-1.14H444.37z"/>
	<path class="st6" d="M496.64,527.47h-3.69l-2.64-7.08h-10.78l-2.49,7.08h-3.69l9.86-25.88h3.58L496.64,527.47z M489.27,517.46
		l-3.91-10.76c-0.12-0.34-0.26-0.95-0.4-1.8h-0.08c-0.12,0.78-0.26,1.38-0.42,1.8l-3.88,10.76H489.27z"/>
	<path class="st6" d="M515.43,527.47h-13.65v-25.88h3.34v22.93h10.31V527.47z"/>
	<path class="st6" d="M534.4,527.47h-13.65v-25.88h3.34v22.93h10.31V527.47z"/>
	<path class="st6" d="M553.31,504.56h-7.47v22.91h-3.36v-22.91h-7.43v-2.97h18.26V504.56z"/>
	<path class="st6" d="M554.1,525.75c0-0.6,0.21-1.11,0.62-1.52s0.92-0.62,1.54-0.62c0.62,0,1.14,0.21,1.55,0.63
		c0.41,0.42,0.62,0.92,0.62,1.51c0,0.58-0.21,1.08-0.62,1.5c-0.41,0.42-0.94,0.63-1.57,0.63c-0.61,0-1.12-0.21-1.53-0.63
		C554.3,526.83,554.1,526.33,554.1,525.75z"/>
</g>
<g>
	<g>
		<polygon class="st1" points="210.75,409.31 240.19,409.31 239.01,325.58 154.53,231.18 68.75,327.3 70.49,426.45 99.05,392.47 
			98.74,335.54 155.05,271.74 208.67,329.97 		"/>
		<path class="st7" d="M198.92,409.31c-5.24-6.13-38.36-49.23-39.84-50.96c0,0-0.12-0.15-0.52-0.6c-0.32-0.35-0.57-0.62-0.94-1.01
			c-0.37-0.4-1.59-0.53-2.04,0c-1.73,2.06-2.13,2.58-2.21,2.67c-8.03,9.59-7.93,9.72-17.92,21.86
			c-13.37,16.25-13.39,16.22-19.46,23.43c-8.58,10.19-8.58,10.19-16.83,19.41c-2.02,2.26-2.13,2.15-5.11,2.69
			c-1.34,0.24-20.73,0.22-21.1,0.22c0,0-2.05-0.04-2.05-0.04c-0.65,0-0.48-1.13-0.42-1.22c9.53-14.58,16.5-22.28,36.41-46.59
			c0,0,20.45-26.07,37.33-47.43c0.38-0.48,2.9-3.46,4.03-4.25c1.07-0.52,1.95-0.62,4.53-1.07c3.7-0.65,4.84-0.83,10.77,0.87
			c4.38,1.26,43.07,57.76,63.69,82.01"/>
	</g>
	<line class="st8" x1="198.2" y1="409.31" x2="241.65" y2="409.31"/>
	<path class="st7" d="M166.04,330.56c0,2.98-6.23,5.1-10.31,5.1s-9.01-2.42-9.01-5.4c0-2.98,4.93-5.4,9.01-5.4
		S166.04,327.57,166.04,330.56z"/>
</g>
<path d="M352.1,339.05h-17.4l-5.61-16.95h-27.21l-5.51,16.95h-17.3l27.4-73.95h18.75L352.1,339.05z M325.32,309.93l-8.51-25.64
	c-0.55-1.62-0.94-3.77-1.16-6.45h-0.43c-0.19,2.17-0.63,4.25-1.3,6.25l-8.55,25.83H325.32z"/>
</svg>
