<?xml version="1.0" encoding="utf-8"?>
<!-- Generator: Adobe Illustrator 24.1.2, SVG Export Plug-In . SVG Version: 6.00 Build 0)  -->
<svg version="1.1" id="Layer_1" xmlns="http://www.w3.org/2000/svg" xmlns:xlink="http://www.w3.org/1999/xlink" x="0px" y="0px"
	 viewBox="0 0 612 792" style="enable-background:new 0 0 612 792;" xml:space="preserve">
<style type="text/css">
	.st0{display:none;}
	.st1{display:none;fill:#FFFFFF;}
</style>
<g>
	<path d="M242.62,377.75c-9.83,0-19.35,0.04-28.86-0.07c-0.9-0.01-2.03-0.76-2.63-1.51c-6.79-8.37-13.5-16.81-20.24-25.23
		c-0.35-0.43-0.72-0.85-1.27-1.51c-3.66,4.4-7.2,8.59-10.66,12.84c-7.62,9.35-15.21,18.73-22.8,28.11
		c-2.8,3.46-6.38,5.01-10.84,4.85c-3.67-0.14-7.35-0.03-11.32-0.03c0-1.28,0-2.27,0-3.26c0-19.89,0.05-39.77-0.07-59.66
		c-0.02-2.68,1.86-3.95,3.22-5.48c11.64-13.13,23.45-26.11,35.14-39.2c5.59-6.26,11.04-12.66,16.62-19.08
		c4.12,4.54,8.1,8.86,12.01,13.24c6.83,7.63,13.68,15.26,20.43,22.96c6.86,7.83,13.63,15.75,20.38,23.67
		c0.59,0.7,1.05,1.77,1.05,2.68c0.06,14.98,0.03,29.97,0.02,44.95C242.79,376.58,242.68,377.11,242.62,377.75z M189.41,295.91
		c-0.84,0.9-1.81,1.88-2.72,2.92c-10.9,12.54-21.84,25.06-32.63,37.69c-1.07,1.26-1.78,3.24-1.81,4.91
		c-0.18,8.6-0.09,17.21-0.07,25.82c0,0.66,0.13,1.32,0.23,2.3c1.35-1.7,2.42-3.08,3.52-4.44c8.65-10.68,17.28-21.37,25.98-32
		c0.77-0.94,1.88-2.11,2.93-2.2c3.12-0.29,6.29-0.16,9.43-0.05c0.56,0.02,1.21,0.64,1.62,1.15c4.85,6.02,9.66,12.09,14.5,18.12
		c4.12,5.14,8.27,10.25,12.4,15.36c0.25-0.18,0.38-0.23,0.38-0.28c0.04-10.27,0.08-20.54,0.05-30.81c0-0.64-0.37-1.41-0.81-1.9
		c-2.6-2.88-5.33-5.65-7.92-8.53C206.15,314.67,197.86,305.36,189.41,295.91z"/>
	<path d="M273.58,400.25c-4.48-1.03-8.35-2.06-12.26-2.8c-8.15-1.55-16.29-1.1-24.49-0.1c-10.78,1.31-21.18,3.94-31.26,7.88
		c-8.5,3.32-16.9,6.92-25.41,10.22c-10.39,4.04-21.19,5.91-32.35,5.29c-11.03-0.62-20.77-4.38-28.54-12.48
		c-3.86-4.02-7.55-8.21-11-12.5c5.79,2.78,11.41,6.04,17.42,8.23c11.41,4.16,22.92,2.91,34.27-0.74
		c13.11-4.22,26.17-8.62,39.36-12.56c13-3.89,26.44-4.76,39.89-3.69c11.23,0.89,21.97,3.86,31.35,10.55
		C271.51,398.2,272.3,399.09,273.58,400.25z"/>
	<path class="st0" d="M411.87,333.04c-4.7-10.34-9.28-20.41-14.1-31.04c0,11.85,0,23.19,0,34.71c-3.21,0-6.13,0-9.27,0
		c0-17.02,0-34.07,0-51.46c3.76,0,7.53-0.09,11.28,0.09c0.65,0.03,1.49,1.13,1.82,1.91c4.38,10.16,8.68,20.35,13.24,31.09
		c2.34-5.6,4.53-10.76,6.65-15.94c2.08-5.08,4.14-10.16,6.08-15.3c0.55-1.45,1.26-1.94,2.79-1.89c3.41,0.12,6.82,0.04,10.41,0.04
		c0,17.23,0,34.29,0,51.49c-2.96,0-5.86,0-8.93,0c0-11.63,0-23.14,0-34.65c-0.13-0.04-0.26-0.08-0.39-0.12
		c-1.93,4.48-3.81,8.98-5.81,13.43c-2.33,5.17-4.83,10.25-7.12,15.43c-0.73,1.64-1.59,2.53-3.49,2.22
		C414.04,332.91,413.01,333.04,411.87,333.04z"/>
	<path d="M136.37,425.95c8.97,4.54,17.74,6.13,26.85,5.24c8.64-0.85,16.66-3.95,24.56-7.45c11.03-4.89,22.01-9.95,33.29-14.18
		c9.01-3.38,18.53-5.18,28.28-4.89c6.1,0.18,12.03,1.23,17.61,3.85c0.38,0.18,0.73,0.44,1.13,0.69
		c-14.52-0.41-27.01,5.42-39.23,11.98c-11.74,6.31-22.91,13.71-35.58,18.22c-8.07,2.87-16.39,4.14-24.91,3.51
		C155.58,441.97,144.91,436.7,136.37,425.95z"/>
	<path class="st0" d="M497.44,336.9c-2.77,0-5.2-0.23-7.56,0.06c-2.79,0.34-3.89-0.87-4.54-3.36c-0.78-2.99-1.91-5.89-2.92-8.91
		c-6.03,0-11.95-0.05-17.86,0.07c-0.69,0.01-1.69,0.91-1.98,1.62c-1.12,2.8-2.07,5.67-2.96,8.55c-0.44,1.42-1.09,2.1-2.72,2.01
		c-2.76-0.15-5.54-0.04-8.63-0.04c2.13-5.81,4.19-11.43,6.27-17.05c4.02-10.88,8.08-21.74,12.03-32.64
		c0.57-1.58,1.41-2.08,3.02-1.99c2.85,0.16,6.38-0.87,8.39,0.47c1.92,1.28,2.32,4.92,3.3,7.55c5.15,13.78,10.27,27.56,15.39,41.35
		C496.92,335.27,497.13,335.96,497.44,336.9z M465.87,316.28c4.66,0,8.95,0,13.65,0c-2.23-6.18-4.36-12.07-6.49-17.96
		c-0.22,0.03-0.45,0.07-0.67,0.1C470.22,304.3,468.09,310.17,465.87,316.28z"/>
	<path class="st0" d="M341.57,336.75c-3.67,0-7.14,0-10.87,0c-1.25-3.89-2.54-7.92-3.84-11.99c-6.55,0-13.01,0-19.56,0
		c-1.18,3.5-2.26,6.99-3.58,10.39c-0.29,0.76-1.43,1.61-2.22,1.67c-2.85,0.2-5.72,0.08-8.92,0.08c2.49-6.71,4.92-13.18,7.3-19.66
		c3.74-10.2,7.43-20.41,11.23-30.59c0.23-0.62,1.29-0.95,1.99-1.38c0.13-0.08,0.36-0.02,0.55-0.01c2.95,0.07,6.55-0.87,8.64,0.5
		c1.92,1.26,2.22,5,3.21,7.66c5.23,14.05,10.45,28.1,15.67,42.16C341.3,335.9,341.4,336.23,341.57,336.75z M309.84,316.45
		c4.82,0,9.24,0,14,0c-2.31-6.28-4.52-12.3-6.73-18.31c-0.21,0.01-0.41,0.02-0.62,0.03C314.29,304.21,312.09,310.26,309.84,316.45z"
		/>
	<path class="st0" d="M332.84,364.95c-2.61,0.3-4.8,0.7-6.99,0.74c-0.89,0.01-2.15-0.52-2.62-1.23c-3.25-4.81-7.38-6.83-12.36-5.8
		c-5.29,1.09-9.47,5.37-10.38,10.8c-1.1,6.57-0.16,12.6,5.69,16.7c4.87,3.42,15.65,3.13,18.28-5.16c0.21-0.67,0.35-1.37,0.61-2.38
		c-4.02,0-7.76,0-11.68,0c0-2.33,0-4.39,0-6.6c6.61,0,13.13,0,19.63,0c3.11,11.07-3.99,24.03-17.85,24.36
		c-9.82,0.24-17.39-3.31-21.48-12.26c-5.22-11.43-1.92-27.53,11.48-32.45c11.19-4.11,23.13,0.48,26.99,11.05
		C332.39,363.4,332.57,364.09,332.84,364.95z"/>
	<path class="st0" d="M364.26,377.76c3.99,6.02,7.82,11.81,11.91,17.99c-3.36,0-6.28,0.08-9.19-0.07c-0.6-0.03-1.33-0.83-1.71-1.45
		c-2.54-4.14-5.19-8.22-7.42-12.53c-1.54-2.97-3.59-3.77-6.79-2.86c0,5.46,0,10.97,0,16.7c-2.99,0-5.79,0-8.78,0
		c0-14.78,0-29.6,0-45.04c7.44,0.3,14.91,0.16,22.25,1.04c6.01,0.72,10.21,6.39,10.33,12.26
		C375.01,370.87,371.29,375.84,364.26,377.76z M351.16,358.35c0,4.45,0,8.35,0,12.42c3.11,0,6.05,0.1,8.97-0.03
		c3.11-0.14,5.54-2.42,5.84-5.19c0.36-3.34-1.05-5.79-4.5-6.45C358.19,358.47,354.76,358.58,351.16,358.35z"/>
	<path class="st0" d="M382.64,350.85c3.07,0,5.75,0,8.9,0c0,0.98,0,1.94,0,2.9c0.01,8.23-0.08,16.47,0.04,24.7
		c0.11,7.38,6.38,11.58,13.21,8.93c2.96-1.15,4.92-3.39,5.08-6.6c0.28-5.54,0.29-11.09,0.35-16.63c0.05-4.33,0.01-8.67,0.01-13.19
		c2.99,0,5.81,0,8.8,0c0.07,0.42,0.24,0.94,0.24,1.46c0.02,8.79,0.3,17.59-0.07,26.37c-0.37,8.62-5.06,16.13-15.56,17.42
		c-9.27,1.14-17.56-2.57-20.09-12.25c-0.37-1.42-0.84-2.87-0.86-4.31c-0.09-8.7-0.05-17.39-0.06-26.09
		C382.64,352.75,382.64,351.93,382.64,350.85z"/>
	<path class="st0" d="M428.54,351.33c7.1,0,14.04-0.45,20.89,0.13c6.14,0.53,10.23,5.79,10.38,11.97c0.05,2.28,0.17,4.67-0.38,6.85
		c-1.64,6.46-6.56,9.72-14.41,9.91c-2.56,0.06-5.13,0.01-7.89,0.01c0,5.23,0,10.19,0,15.35c-2.92,0-5.64,0-8.59,0
		C428.54,380.8,428.54,365.97,428.54,351.33z M437.18,372.44c2.89,0,5.46,0.09,8.03-0.02c3.63-0.17,5.98-2.62,6.28-6.33
		c0.29-3.58-1.66-6.96-4.78-7.34c-3.13-0.38-6.35-0.08-9.53-0.08C437.18,363.36,437.18,367.75,437.18,372.44z"/>
	<path class="st0" d="M467.8,351.29c6.83,0,13.51-0.53,20.07,0.13c9.56,0.95,12.44,10.13,11.12,17.18c-1.6,8.56-7,11.09-14.47,11.59
		c-2.56,0.17-5.14,0.03-8.01,0.03c0,5.24,0,10.27,0,15.43c-3.03,0-5.77,0-8.71,0C467.8,380.79,467.8,365.96,467.8,351.29z
		 M476.66,358.36c0,5.06,0,9.46,0,14.07c2.83,0,5.5,0.11,8.15-0.03c2.97-0.16,5.25-2.38,5.58-5.14c0.55-4.63-0.57-7.34-4.12-8.13
		C483.21,358.46,479.96,358.59,476.66,358.36z"/>
	<path d="M165.07,449.11c10.08,0.7,19.78-0.05,28.94-3.73c9.33-3.75,18.38-8.19,27.57-12.29c6.29-2.81,12.62-5.54,18.93-8.31
		c0.12,0.24,0.24,0.49,0.37,0.73c-3.26,3.12-6.47,6.29-9.8,9.34c-9.39,8.58-19.08,16.8-30.25,23.04c-1.99,1.11-4.1,2.04-6.13,3.09
		c-3.64,1.89-7.27,1.84-10.75-0.24C177.63,456.92,171.36,452.99,165.07,449.11z"/>
	<path class="st0" d="M348.96,285.37c3.27,0,6.37,0,9.76,0c0,14,0,27.9,0,42.08c6.97,0,13.67,0,20.63,0
		c-0.26,3.21-0.49,6.12-0.75,9.24c-9.78,0-19.61,0-29.64,0C348.96,319.71,348.96,302.67,348.96,285.37z"/>
	<path class="st0" d="M356.77,447.23c-1.4,3.08-2.8,6.15-4.2,9.23c-0.29,0-0.58,0.01-0.88,0.01c-1.54-3.21-3.08-6.42-4.62-9.63
		c-0.13,0.02-0.25,0.04-0.38,0.06c0,2.97,0,5.95,0,8.93c-1.55,0.74-2.4,0.76-2.38-1.15c0.04-4.52,0.01-9.04,0.01-13.74
		c1.11,0,2.07,0,3.08,0c1.5,3.59,3,7.19,4.68,11.22c1.4-3.28,2.65-6.25,3.92-9.2c0.94-2.19,0.95-2.19,3.62-2.05
		c0,5.02,0,10.05,0,15.28c-0.7,0.03-1.4,0.06-2.4,0.11c0-3.06,0-6.03,0-8.99C357.07,447.28,356.92,447.25,356.77,447.23z"/>
	<path class="st0" d="M309.58,440.76c2.25,0,4.36-0.16,6.44,0.04c2.29,0.22,3.98,1.51,4.36,3.89c0.4,2.51-0.83,4.21-3.43,5.24
		c1.19,2.03,2.35,4.01,3.51,6c-0.19,0.25-0.38,0.5-0.57,0.74c-1.02-0.68-2.18-1.21-3.01-2.07c-0.88-0.9-1.34-2.19-2.16-3.16
		c-0.54-0.64-1.39-1.02-2.58-1.83c0,2.6,0,4.43,0,6.49c-0.89,0.06-1.65,0.11-2.56,0.18C309.58,451.13,309.58,446.18,309.58,440.76z
		 M312.26,442.5c0,2.25,0,3.76,0,6.03c1.97-0.67,3.66-1.08,5.14-1.87c0.36-0.2,0.33-2.28-0.04-2.47
		C315.86,443.44,314.16,443.08,312.26,442.5z"/>
	<path class="st0" d="M387.94,456.33c-4.91,0.61-7.55-3.64-7.46-7.81c0.1-4.69,3.07-7.92,7.29-7.92c4.1-0.01,7.6,3.06,7.64,7.9
		C395.44,453.32,392.58,456.33,387.94,456.33z M392.63,448.84c0.03-3.88-1.46-5.82-4.52-5.87c-3.17-0.05-4.92,1.91-4.92,5.53
		c0,3.51,1.7,5.76,4.42,5.84C390.72,454.42,392.6,452.36,392.63,448.84z"/>
	<path class="st0" d="M400.87,440.75c2.04,0,3.69,0,5.34,0c2.5,0,4.6,0.72,5.26,3.44c0.62,2.56-0.59,4.63-3.36,5.92
		c1.17,1.92,2.34,3.84,3.56,5.83c-2.38,1.06-3.06-0.55-4.13-1.91c-1.11-1.41-1.08-4.19-4.24-3.74c0,1.88,0,3.76,0,5.64
		c-0.24,0.19-0.48,0.38-0.72,0.57c-0.56-0.54-1.6-1.06-1.62-1.61C400.82,450.3,400.87,445.7,400.87,440.75z M403.31,448.57
		c2.05-0.7,3.79-1.14,5.34-1.94c0.35-0.18,0.33-2.22-0.01-2.38c-1.57-0.76-3.32-1.16-5.32-1.8
		C403.31,444.67,403.31,446.11,403.31,448.57z"/>
	<path class="st0" d="M340.52,430.08c-1.04,0-1.83,0-2.59,0c-1.32-3.72-3.56-4.92-7.26-3.72c-0.64,0.21-1.2,1.25-1.44,2.02
		c-0.49,1.63-1.36,2.24-3.14,1.58c1.71-4.67,3.37-9.37,5.19-14c0.24-0.61,1.32-1.32,1.93-1.25c0.78,0.09,1.86,0.76,2.14,1.45
		C337.14,420.63,338.73,425.18,340.52,430.08z M333.28,417.34c-0.95,2.53-1.67,4.47-2.46,6.57c1.71,0,3.11,0,4.76,0
		C334.84,421.79,334.18,419.91,333.28,417.34z"/>
	<path class="st0" d="M438.69,456.03c-1.92,0.7-2.99,0.14-3.31-1.72c-0.3-1.72-1.44-2.09-2.98-1.91c-1.76,0.2-4.07-0.82-4.65,2
		c-0.36,1.76-1.25,2.32-3.08,1.56c1.81-5,3.61-9.97,5.41-14.95c2.25-0.87,3.22,0.08,3.92,2.24
		C435.39,447.49,437.07,451.65,438.69,456.03z M433.94,450.07c-0.84-2.09-1.53-3.82-2.44-6.09c-0.88,2.43-1.52,4.18-2.21,6.09
		C430.81,450.07,432.15,450.07,433.94,450.07z"/>
	<path class="st0" d="M331.03,439.99c1.27,1.05,2.67,1.65,3.08,2.66c1.8,4.39,3.31,8.89,4.93,13.39c-3.32,1.19-3.02-1.72-3.89-3.5
		c-1.93,0-3.95,0-5.97,0c-1.25,1.25-0.54,4.67-4.01,3.57C326.99,451.08,328.82,446.06,331.03,439.99z M334.34,450.12
		c-0.76-1.99-1.41-3.71-2.27-5.99c-0.88,2.31-1.54,4.06-2.27,5.99C331.44,450.12,332.71,450.12,334.34,450.12z"/>
	<path class="st0" d="M294.45,429.97c0-5.12,0-10.08,0-15.04c2.22-0.19,2.22-0.19,2.24,6.07c3.07-1.65,3.57-6.42,8.54-6.52
		c-1.68,2.16-2.89,3.92-4.32,5.49c-1.12,1.23-1.01,2.09,0.05,3.29c1.86,2.12,3.56,4.39,5.48,6.8c-5.09,0.84-5.31-4.3-8.82-6.3
		c-0.34,1.61-0.86,3.06-0.9,4.53C296.68,429.87,296.3,430.57,294.45,429.97z"/>
	<path class="st0" d="M387.12,423.53c0,1.61,0,2.81,0,4.3c2.1,0,4.16,0,6.23,0c0.19,0.26,0.38,0.52,0.57,0.78
		c-0.54,0.53-1.06,1.47-1.64,1.51c-2.48,0.17-4.97,0.07-7.66,0.07c0-5.16,0-10.18,0-15.59c2.68,0,5.32-0.03,7.96,0.04
		c0.38,0.01,0.75,0.53,1.12,0.81c-0.37,0.29-0.73,0.81-1.11,0.83c-1.73,0.09-3.47,0.04-5.36,0.04c0,1.65,0,3.1,0,4.84
		c1.79,0,3.67,0,5.5,0c0.41,2.31,0.41,2.33-1.53,2.37C389.92,423.56,388.65,423.53,387.12,423.53z"/>
	<path class="st0" d="M310.06,414.82c1.98-0.62,3-0.03,3.59,1.89c0.99,3.2,2.24,6.31,3.58,9.98c1.37-3.69,2.55-6.87,3.74-10.06
		c0.75-2.02,0.75-2.02,3.33-1.8c-1.82,4.7-3.59,9.37-5.48,13.99c-0.24,0.59-1.06,1.21-1.67,1.29c-0.48,0.06-1.36-0.57-1.57-1.09
		C313.67,424.3,311.88,419.56,310.06,414.82z"/>
	<path class="st0" d="M296.85,450.19c-0.24,2.09-0.45,4.06-0.77,6.01c-0.01,0.08-0.98,0.01-1.62,0.01c0-5.13,0-10.09,0-15.45
		c2.71,0,5.44-0.08,8.15,0.07c0.5,0.03,0.95,0.95,1.42,1.45c-0.14,0.23-0.28,0.46-0.42,0.69c-2.26,0-4.52,0-6.9,0
		c0,1.73,0,3.17,0,4.88c2.13,0,4.21,0,6.29,0c0.08,0.33,0.16,0.67,0.24,1C301.71,450.97,298.82,449.01,296.85,450.19z"/>
	<path class="st0" d="M368.36,442.89c0,1.91,0,3.35,0,5.08c1.3,0,2.48-0.11,3.64,0.03c0.95,0.12,1.87,0.52,2.8,0.8
		c-0.88,0.33-1.74,0.81-2.65,0.94c-1.15,0.16-2.35,0.04-3.8,0.04c0,2.24,0,4.22,0,6.2c-0.26,0.18-0.52,0.36-0.78,0.54
		c-0.53-0.57-1.49-1.14-1.51-1.72c-0.13-4.58-0.07-9.17-0.07-13.71c6.15-1.05,9.1-0.55,9.37,1.79
		C373.07,442.89,370.81,442.89,368.36,442.89z"/>
	<path class="st0" d="M375.37,430.06c-1.12,0-1.81,0-2.69,0c0-4.5,0-8.91,0-13.72c-1.15,0-2.13,0.09-3.08-0.04
		c-0.48-0.07-0.91-0.53-1.36-0.82c0.47-0.29,0.93-0.82,1.4-0.83c3.12-0.08,6.25-0.04,9.39-0.04c-0.12,1.59-0.12,1.59-3.65,1.95
		C375.37,420.9,375.37,425.29,375.37,430.06z"/>
	<path class="st0" d="M403.45,416.34c-1.51,0-2.45,0.1-3.34-0.04c-0.48-0.08-0.89-0.57-1.34-0.87c0.48-0.27,0.95-0.77,1.43-0.79
		c2.86-0.08,5.72-0.09,8.58,0c0.53,0.02,1.05,0.59,1.57,0.91c-0.49,0.26-0.95,0.66-1.47,0.73c-0.81,0.12-1.65,0.03-2.76,0.03
		c0,4.55,0,9.02,0,13.68c-0.93,0.07-1.6,0.12-2.67,0.19C403.45,425.56,403.45,421.09,403.45,416.34z"/>
	<path class="st0" d="M458.05,441.01c1.49-0.58,2.17-0.26,2.13,1.52c-0.09,3.76-0.03,7.53-0.03,11.47c2.06,0,3.98,0,5.96,0
		c0.66,1.51,0.62,2.36-1.24,2.32c-2.21-0.06-4.42-0.01-6.81-0.01C458.05,451.11,458.05,446.08,458.05,441.01z"/>
	<path class="st0" d="M468.25,440.86c3.66,0,7.14,0,10.62,0c0.28,1.8,0.28,1.8-3.96,2.39c0,4.18,0,8.4,0,12.69
		c-1.57,0.64-2.34,0.47-2.32-1.33c0.05-3.77,0.02-7.54,0.02-11.36c-1.58-0.26-2.97-0.45-4.34-0.78
		C468.14,442.45,468.25,441.5,468.25,440.86z"/>
	<path class="st0" d="M348.2,427.74c2.44,0.23,4.51,0.41,6.57,0.69c0.07,0.01,0.01,0.99,0.01,1.64c-2.87,0-5.62,0-8.59,0
		c0-5,0-10.02,0-15.26c1.23-0.37,2.07-0.36,2.03,1.48C348.15,420.06,348.2,423.84,348.2,427.74z"/>
	<path class="st0" d="M445.94,453.82c2.45,0.25,4.51,0.44,6.56,0.73c0.07,0.01,0.01,0.99,0.01,1.63c-2.89,0-5.62,0-8.58,0
		c0-5,0-10.01,0-15.21c1.31-0.49,2.06-0.29,2.03,1.48C445.9,446.21,445.94,449.97,445.94,453.82z"/>
	<path class="st0" d="M360.5,429.8c0-4.95,0-9.9,0-14.8c1.64-0.85,2.17-0.27,2.16,1.35c-0.04,4.05,0.04,8.1-0.07,12.14
		c-0.02,0.66-0.82,1.3-1.25,1.95C361.05,430.23,360.78,430.02,360.5,429.8z"/>
	<path class="st1" d="M189.41,295.91c8.45,9.45,16.74,18.77,25.07,28.04c2.59,2.89,5.32,5.66,7.92,8.53
		c0.44,0.49,0.81,1.26,0.81,1.9c0.02,10.27-0.02,20.54-0.05,30.81c0,0.05-0.13,0.1-0.38,0.28c-4.13-5.11-8.28-10.22-12.4-15.36
		c-4.84-6.03-9.65-12.1-14.5-18.12c-0.41-0.51-1.06-1.13-1.62-1.15c-3.14-0.11-6.31-0.24-9.43,0.05c-1.04,0.1-2.16,1.27-2.93,2.2
		c-8.69,10.64-17.33,21.33-25.98,32c-1.1,1.36-2.17,2.74-3.52,4.44c-0.1-0.98-0.23-1.64-0.23-2.3c-0.01-8.61-0.11-17.22,0.07-25.82
		c0.03-1.67,0.74-3.65,1.81-4.91c10.79-12.63,21.73-25.15,32.63-37.69C187.6,297.79,188.57,296.8,189.41,295.91z"/>
	<path class="st1" d="M465.87,316.28c2.22-6.11,4.35-11.98,6.49-17.85c0.22-0.03,0.45-0.07,0.67-0.1
		c2.13,5.89,4.26,11.78,6.49,17.96C474.82,316.28,470.53,316.28,465.87,316.28z"/>
	<path class="st1" d="M309.84,316.45c2.25-6.18,4.45-12.23,6.66-18.28c0.21-0.01,0.41-0.02,0.62-0.03
		c2.21,6.01,4.42,12.03,6.73,18.31C319.08,316.45,314.66,316.45,309.84,316.45z"/>
	<path class="st1" d="M351.16,358.35c3.6,0.23,7.03,0.12,10.31,0.75c3.45,0.66,4.85,3.11,4.5,6.45c-0.3,2.77-2.73,5.05-5.84,5.19
		c-2.93,0.13-5.86,0.03-8.97,0.03C351.16,366.7,351.16,362.8,351.16,358.35z"/>
	<path class="st1" d="M437.18,372.44c0-4.69,0-9.08,0-13.78c3.19,0,6.4-0.3,9.53,0.08c3.12,0.38,5.07,3.77,4.78,7.34
		c-0.3,3.72-2.65,6.17-6.28,6.33C442.64,372.53,440.06,372.44,437.18,372.44z"/>
	<path class="st1" d="M476.66,358.36c3.3,0.23,6.55,0.1,9.62,0.78c3.55,0.78,4.67,3.49,4.12,8.13c-0.33,2.75-2.62,4.98-5.58,5.14
		c-2.66,0.14-5.32,0.03-8.15,0.03C476.66,367.82,476.66,363.42,476.66,358.36z"/>
	<path class="st1" d="M312.26,442.5c1.9,0.58,3.6,0.93,5.09,1.69c0.37,0.19,0.4,2.27,0.04,2.47c-1.48,0.8-3.17,1.2-5.14,1.87
		C312.26,446.26,312.26,444.75,312.26,442.5z"/>
	<path class="st1" d="M392.63,448.84c-0.03,3.52-1.91,5.58-5.02,5.5c-2.72-0.07-4.42-2.32-4.42-5.84c0-3.62,1.75-5.58,4.92-5.53
		C391.17,443.02,392.67,444.96,392.63,448.84z"/>
	<path class="st1" d="M403.31,448.57c0-2.46,0-3.9,0-6.12c2,0.63,3.75,1.03,5.32,1.8c0.34,0.17,0.36,2.2,0.01,2.38
		C407.1,447.42,405.36,447.87,403.31,448.57z"/>
	<path class="st1" d="M333.28,417.34c0.9,2.57,1.56,4.45,2.3,6.57c-1.65,0-3.05,0-4.76,0C331.61,421.81,332.34,419.87,333.28,417.34
		z"/>
	<path class="st1" d="M433.94,450.07c-1.79,0-3.13,0-4.66,0c0.7-1.91,1.33-3.67,2.21-6.09
		C432.41,446.26,433.11,447.99,433.94,450.07z"/>
	<path class="st1" d="M334.34,450.12c-1.63,0-2.9,0-4.55,0c0.73-1.93,1.39-3.67,2.27-5.99C332.93,446.4,333.59,448.12,334.34,450.12
		z"/>
	<g>
		<path d="M335.21,331.89h-10.55l-3.4-10.4h-16.49l-3.34,10.4h-10.49l16.61-45.38h11.37L335.21,331.89z M318.98,314.02l-5.16-15.73
			c-0.33-1-0.57-2.31-0.7-3.96h-0.26c-0.12,1.33-0.38,2.61-0.79,3.84l-5.19,15.85H318.98z"/>
		<path d="M370.04,331.89h-26.63v-45.38h9.67v37.47h16.96V331.89z"/>
		<path d="M420.23,331.89v-27.54c0-2.54,0.13-5.73,0.38-9.58h-0.23c-0.59,2.91-1.05,4.85-1.41,5.83l-11.19,31.29h-7.71l-11.34-31
			c-0.27-0.74-0.75-2.78-1.44-6.12h-0.26c0.25,3.81,0.38,7.63,0.38,11.46v25.66h-8.73v-45.38h14.06l9.79,27.42
			c0.82,2.27,1.38,4.39,1.67,6.39h0.21c0.61-2.48,1.23-4.63,1.88-6.45l9.81-27.36h13.68v45.38H420.23z"/>
		<path d="M482.22,331.89h-10.55l-3.4-10.4h-16.49l-3.34,10.4h-10.49l16.61-45.38h11.37L482.22,331.89z M465.99,314.02l-5.16-15.73
			c-0.33-1-0.57-2.31-0.7-3.96h-0.26c-0.12,1.33-0.38,2.61-0.79,3.84l-5.19,15.85H465.99z"/>
	</g>
	<g>
		<path d="M327.25,380.85c-4.14,2.39-9.22,3.58-15.26,3.58c-6.75,0-12.07-1.9-15.97-5.69c-3.9-3.79-5.85-8.98-5.85-15.56
			c0-6.67,2.15-12.1,6.44-16.28s9.95-6.28,16.97-6.28c4.52,0,8.47,0.64,11.84,1.91v8.56c-3.28-1.91-7.29-2.87-12.03-2.87
			c-4.08,0-7.39,1.33-9.93,3.99c-2.53,2.66-3.8,6.17-3.8,10.53c0,4.43,1.14,7.88,3.43,10.36c2.29,2.48,5.41,3.72,9.37,3.72
			c2.35,0,4.27-0.36,5.77-1.09v-8.7h-8.56v-7.25h17.58V380.85z"/>
		<path d="M370.17,383.69h-10.39l-6.64-11.02c-1.37-2.28-2.49-3.75-3.36-4.4s-1.8-0.98-2.79-0.98h-2.73v16.41h-9.02v-42.36h14.85
			c10.08,0,15.12,3.83,15.12,11.48c0,2.88-0.84,5.35-2.53,7.41c-1.69,2.06-4.01,3.51-6.96,4.35v0.11c1.95,0.66,4.11,2.81,6.48,6.45
			L370.17,383.69z M344.24,348.2v12.2h4.43c2.11,0,3.81-0.62,5.1-1.85s1.93-2.77,1.93-4.61c0-3.83-2.29-5.74-6.86-5.74H344.24z"/>
		<path d="M408.05,365.48c0,12.63-5.87,18.95-17.61,18.95c-11.34,0-17.01-6.15-17.01-18.46v-24.64h9.05v24.69
			c0,7.05,2.78,10.58,8.34,10.58c5.47,0,8.2-3.4,8.2-10.2v-25.07h9.02V365.48z"/>
		<path d="M425.93,368.93v14.77h-9.02v-42.36h14.57c10.54,0,15.8,4.47,15.8,13.4c0,4.34-1.59,7.82-4.77,10.43
			c-3.18,2.62-7.16,3.87-11.94,3.76H425.93z M425.93,348.34v13.67h3.91c5.3,0,7.96-2.31,7.96-6.92c0-4.5-2.63-6.75-7.88-6.75H425.93
			z"/>
		<path d="M462.28,368.93v14.77h-9.02v-42.36h14.57c10.54,0,15.8,4.47,15.8,13.4c0,4.34-1.59,7.82-4.77,10.43
			c-3.18,2.62-7.16,3.87-11.94,3.76H462.28z M462.28,348.34v13.67h3.91c5.3,0,7.96-2.31,7.96-6.92c0-4.5-2.63-6.75-7.88-6.75H462.28
			z"/>
	</g>
	<g>
		<path d="M308.35,420.85h-2.81l-5.97-7.22c-0.21-0.25-0.35-0.45-0.42-0.59h-0.05v7.81h-2.05v-15.88h2.05v7.47h0.05
			c0.12-0.18,0.26-0.38,0.42-0.58l5.76-6.89h2.53l-6.67,7.62L308.35,420.85z"/>
		<path d="M323.21,404.97l-5.83,15.88h-2.28l-5.72-15.88h2.28l4.28,12.42c0.14,0.41,0.25,0.89,0.32,1.42h0.05
			c0.05-0.47,0.17-0.95,0.36-1.45l4.36-12.4H323.21z"/>
		<path d="M337.49,420.85h-2.27l-1.62-4.35h-6.61l-1.53,4.35h-2.27l6.05-15.88h2.2L337.49,420.85z M332.97,414.71l-2.4-6.6
			c-0.08-0.21-0.16-0.58-0.25-1.11h-0.05c-0.08,0.48-0.16,0.85-0.26,1.11l-2.38,6.6H332.97z"/>
		<path d="M349.03,420.85h-8.38v-15.88h2.05v14.07h6.33V420.85z"/>
		<path d="M354.34,404.97v15.88h-2.05v-15.88H354.34z"/>
		<path d="M368.92,406.79h-4.58v14.06h-2.06v-14.06h-4.56v-1.82h11.21V406.79z"/>
		<path d="M380.76,420.85h-8.54v-15.88h8.18v1.82h-6.13v5.09h5.68v1.82h-5.68v5.34h6.49V420.85z"/>
		<path d="M394.27,406.79h-4.58v14.06h-2.06v-14.06h-4.56v-1.82h11.21V406.79z"/>
	</g>
	<g>
		<path d="M304.38,433.46h-6.13v5.31h5.68v1.8h-5.68v6.94h-2.05v-15.88h8.18V433.46z"/>
		<path d="M319.81,447.52h-2.42l-2.63-4.41c-0.53-0.88-1.01-1.48-1.45-1.8c-0.44-0.32-0.96-0.48-1.57-0.48h-1.48v6.69h-2.05v-15.88
			h4.84c1.54,0,2.76,0.37,3.63,1.12s1.31,1.79,1.31,3.13c0,2.2-1.18,3.63-3.53,4.29v0.05c0.44,0.18,0.81,0.45,1.13,0.79
			c0.32,0.34,0.73,0.93,1.23,1.75L319.81,447.52z M310.27,433.43v5.61h2.42c0.94,0,1.7-0.27,2.28-0.82
			c0.59-0.55,0.88-1.26,0.88-2.15c0-0.83-0.27-1.47-0.8-1.94s-1.31-0.7-2.33-0.7H310.27z"/>
		<path d="M335.27,447.52H333l-1.62-4.35h-6.61l-1.53,4.35h-2.27l6.05-15.88h2.2L335.27,447.52z M330.74,441.38l-2.4-6.6
			c-0.08-0.21-0.16-0.58-0.25-1.11h-0.05c-0.08,0.48-0.16,0.85-0.26,1.11l-2.38,6.6H330.74z"/>
		<path d="M352.79,447.52V437c0-0.87,0.05-1.91,0.15-3.13h-0.05c-0.18,0.77-0.34,1.3-0.47,1.6l-5.24,12.05h-1.14l-5.23-11.96
			c-0.12-0.27-0.28-0.84-0.47-1.69h-0.06c0.07,0.74,0.1,1.81,0.1,3.22v10.43h-1.96v-15.88h2.78l4.69,10.89
			c0.36,0.83,0.59,1.48,0.71,1.95h0.07c0.36-0.98,0.61-1.64,0.75-1.99l4.77-10.85h2.65v15.88H352.79z"/>
		<path d="M367.99,433.46h-6.13v5.31h5.68v1.8h-5.68v6.94h-2.05v-15.88h8.18V433.46z"/>
		<path d="M370.79,439.77c0-2.56,0.69-4.6,2.08-6.12c1.39-1.52,3.27-2.28,5.64-2.28c2.21,0,3.99,0.74,5.33,2.23s2.02,3.42,2.02,5.79
			c0,2.58-0.69,4.62-2.07,6.13c-1.38,1.51-3.23,2.27-5.54,2.27c-2.26,0-4.06-0.74-5.42-2.23
			C371.47,444.08,370.79,442.15,370.79,439.77z M372.95,439.61c0,1.92,0.49,3.46,1.47,4.62c0.98,1.16,2.26,1.74,3.84,1.74
			c1.7,0,3.03-0.56,3.99-1.67c0.97-1.11,1.45-2.66,1.45-4.66c0-2.05-0.47-3.63-1.42-4.75c-0.95-1.11-2.24-1.67-3.89-1.67
			c-1.62,0-2.93,0.59-3.94,1.76C373.45,436.16,372.95,437.7,372.95,439.61z M375.01,429.11c0-0.32,0.11-0.59,0.33-0.81
			c0.22-0.22,0.5-0.33,0.83-0.33c0.32,0,0.6,0.11,0.83,0.33c0.23,0.22,0.35,0.49,0.35,0.8s-0.11,0.58-0.34,0.81
			c-0.23,0.22-0.5,0.34-0.81,0.34c-0.32,0-0.59-0.11-0.83-0.33C375.13,429.7,375.01,429.43,375.01,429.11z M379.39,429.11
			c0-0.33,0.11-0.6,0.33-0.82c0.22-0.21,0.49-0.32,0.8-0.32c0.33,0,0.61,0.11,0.84,0.33c0.23,0.22,0.34,0.49,0.34,0.81
			c0,0.33-0.11,0.6-0.34,0.82c-0.23,0.22-0.5,0.33-0.81,0.33c-0.32,0-0.59-0.11-0.82-0.33C379.5,429.7,379.39,429.43,379.39,429.11z
			"/>
		<path d="M401.39,447.52h-2.42l-2.64-4.41c-0.53-0.88-1.01-1.48-1.45-1.8c-0.44-0.32-0.96-0.48-1.57-0.48h-1.48v6.69h-2.05v-15.88
			h4.84c1.54,0,2.75,0.37,3.63,1.12s1.31,1.79,1.31,3.13c0,2.2-1.18,3.63-3.53,4.29v0.05c0.44,0.18,0.82,0.45,1.13,0.79
			c0.32,0.34,0.73,0.93,1.24,1.75L401.39,447.52z M391.85,433.43v5.61h2.42c0.94,0,1.7-0.27,2.28-0.82
			c0.58-0.55,0.88-1.26,0.88-2.15c0-0.83-0.27-1.47-0.8-1.94s-1.31-0.7-2.33-0.7H391.85z"/>
		<path d="M423.92,447.52h-2.27l-1.62-4.35h-6.61l-1.53,4.35h-2.27l6.05-15.88h2.2L423.92,447.52z M419.4,441.38l-2.4-6.6
			c-0.08-0.21-0.16-0.58-0.25-1.11h-0.05c-0.08,0.48-0.16,0.85-0.26,1.11l-2.38,6.6H419.4z"/>
		<path d="M435.45,447.52h-8.38v-15.88h2.05v14.07h6.33V447.52z"/>
		<path d="M447.09,447.52h-8.38v-15.88h2.05v14.07h6.33V447.52z"/>
		<path d="M458.7,433.46h-4.58v14.06h-2.06v-14.06h-4.56v-1.82h11.21V433.46z"/>
		<path d="M459.18,446.46c0-0.37,0.13-0.68,0.38-0.93s0.57-0.38,0.94-0.38c0.38,0,0.7,0.13,0.95,0.38c0.25,0.26,0.38,0.57,0.38,0.93
			c0,0.36-0.13,0.66-0.38,0.92c-0.25,0.26-0.57,0.38-0.96,0.38c-0.38,0-0.69-0.13-0.94-0.38
			C459.31,447.13,459.18,446.82,459.18,446.46z"/>
	</g>
</g>
</svg>
